<?xml version="1.0" encoding="utf-8"?>
<!-- Generator: Adobe Illustrator 21.0.0, SVG Export Plug-In . SVG Version: 6.00 Build 0)  -->
<svg version="1.1" id="Layer_1" xmlns="http://www.w3.org/2000/svg" xmlns:xlink="http://www.w3.org/1999/xlink" x="0px" y="0px"
	 viewBox="0 0 512 125" style="enable-background:new 0 0 512 125;" xml:space="preserve">
<title>Asset 1</title>
<g>
	<path d="M77.1,0.5c3.1,0,6.3,1.2,9.5,3.5c3.2,2.3,4.8,4.5,4.8,6.7c0,2.1-0.4,4.5-1.3,7.1c-0.8,2.6-2.2,5.8-4,9.7
		c-1.8,3.9-3.7,7.7-5.5,11.3c-1.8,3.7-4.3,8.4-7.3,14.4c-3,5.9-5.7,11.2-7.9,15.8c-2.2,4.6-4.7,10.1-7.5,16.4
		c-2.7,6.3-5,11.5-6.8,15.5c-1.8,4-3.7,7.9-5.7,11.7c-3.9,7.7-7.7,11.5-11.4,11.5c-1.7,0-4-1.2-7-3.7c-3-2.5-5-5-6-7.4
		c-3.3-8.7-7.6-26.7-12.9-54.2C2.7,31.1,0,14.6,0,9c0-5.6,1.5-8.4,4.5-8.4c3.8,0,7.7,1.6,11.8,4.9c4,3.3,7.2,7.6,9.4,13
		c0.9,2.3,1.8,7,2.6,14.3c0.8,7.3,1.8,16.3,3,27c1.2,10.8,2.4,20,3.8,27.6c11.3-30.9,20.2-53,26.8-66.6C68.5,7.3,73.5,0.5,77.1,0.5z
		"/>
	<path d="M94.6,117.1c-3.8-4.7-5.7-8.1-5.7-10.2c0-2.1,2.8-17.8,8.3-47c5.5-29.2,8.4-47.2,8.7-53.8c0.2-3.7,2-5.6,5.2-5.6
		c2.7,0,6.3,2.7,10.8,8.1c4.5,5.4,6.7,10.5,6.7,15.2c0,2-1.5,9.7-4.6,22.9c-3.1,13.2-5.2,22.5-6.2,27.7c-1.1,5.2-2,9.9-2.8,14
		c-0.8,4.1-1.4,7.3-1.8,9.7c-3.1,14.4-5.6,22.7-7.4,24.8c-0.7,0.8-1.3,1.2-2,1.2C101.4,124.2,98.4,121.8,94.6,117.1z"/>
	<path d="M218.4,0.5c3.1,0,6.3,1.2,9.5,3.5c3.2,2.3,4.8,4.5,4.8,6.7c0,2.1-0.4,4.5-1.3,7.1c-0.8,2.6-2.2,5.8-4,9.7
		c-1.8,3.9-3.7,7.7-5.5,11.3c-1.8,3.7-4.3,8.4-7.3,14.4c-3,5.9-5.7,11.2-7.9,15.8c-2.2,4.6-4.7,10.1-7.5,16.4
		c-2.7,6.3-5,11.5-6.8,15.5c-1.8,4-3.7,7.9-5.7,11.7c-3.9,7.7-7.7,11.5-11.4,11.5c-1.7,0-4-1.2-7-3.7c-3-2.5-5-5-6-7.4
		c-3.3-8.7-7.6-26.7-12.9-54.2c-5.4-27.5-8.1-44-8.1-49.7c0-5.6,1.5-8.4,4.5-8.4c3.8,0,7.7,1.6,11.8,4.9c4,3.3,7.2,7.6,9.4,13
		c0.9,2.3,1.8,7,2.6,14.3c0.8,7.3,1.8,16.3,3,27c1.2,10.8,2.4,20,3.8,27.6c11.3-30.9,20.2-53,26.8-66.6
		C209.8,7.3,214.9,0.5,218.4,0.5z"/>
	<path d="M263.5,53.2c5.9,0,12.3-0.3,19.2-0.9c6.8-0.6,11.1-0.9,12.7-0.9c1.6,0,2.9,0.4,3.9,1.2c0.9,0.8,1.4,1.7,1.4,2.9
		c0,5-4.6,8.9-13.9,11.8c-9.3,2.9-19.2,4.6-29.7,5.1c-4.4,13.6-6.6,22.2-6.6,25.8c0,1.9,1,2.9,2.9,2.9c12.8,0,25.9-1.7,39.5-5.1
		c4.6-1.2,7.2-1.9,7.9-1.9c2.1,0,3.2,1.5,3.2,4.6c0,4.1-3,8-8.9,11.8c-5.9,3.8-13.4,6.9-22.3,9.1c-9,2.3-17.8,3.4-26.4,3.4
		c-5.2,0-9.8-1.9-13.9-5.8c-4.1-3.9-6.2-8.4-6.2-13.7c0-5.2,2.9-18.4,8.7-39.4c5.8-21.1,8.8-36.9,9.2-47.6c-0.1-0.3-0.2-1-0.2-2
		c0-1.6,0.2-2.8,0.7-3.7c1.2-3.2,4.6-5.2,10.2-6c5.6-0.8,15.7-1.3,30.2-1.3c24.2,0,36.3,2.7,36.3,8.1c0,3.5-3,5.9-8.9,7.3
		c-4,0.9-9.6,1.7-16.6,2.5c-10.9,1.2-20.6,3-29.1,5.4c0,7.7-1.3,16.5-4,26.5H263.5z"/>
	<path d="M343,0.2c2.8,0,6.4,2,10.7,6.1c4.3,4.1,6.5,8,6.5,11.9s-2,13.9-6,30.2c-4,16.2-6,27.4-6,33.5c0,6.1,0.8,10.8,2.3,14.1
		c1.5,3.3,3.6,4.9,6.4,4.9c2.7,0,6-2,9.7-6c3.7-4,7.3-9.2,10.7-15.5c3.4-6.4,6.3-14,8.6-22.8c2.3-8.8,3.4-17.1,3.4-24.7
		s-0.4-13.7-1.1-18.3c-0.7-4.6-1.1-7.4-1.1-8.3c0-3.5,1.5-5.2,4.4-5.2c3.6,0,8.2,3,13.9,9.1c5.7,6.1,8.5,13.3,8.5,21.7
		c0,8.4-1.5,18-4.4,28.9c-2.9,10.9-6.8,21.1-11.8,30.8c-4.9,9.7-11.2,17.7-18.7,24.2c-7.6,6.4-15.3,9.6-23.2,9.6
		c-7.9,0-15-4.2-21.4-12.5c-6.4-8.3-9.6-16.8-9.6-25.5c0-8.7,1.1-18.7,3.4-30.2c2.2-11.4,4.5-21.7,6.7-30.8
		c2.2-9.1,3.4-15.6,3.4-19.4C337.9,2.1,339.6,0.2,343,0.2z"/>
	<path d="M509.6,118.1c0,4.6-3.2,6.9-9.6,6.9c-8.7,0-17.9-4.6-27.5-13.7c-9.6-9.1-16.4-18.6-20.4-28.5c-1.8,5.4-3,9.1-3.7,11
		c-0.7,1.9-1.7,5-3,9.1c-1.3,4.2-2.4,7.3-3.1,9.3c-0.7,2-1.5,4.2-2.4,6.4c-1.7,4.3-3.3,6.4-4.9,6.4c-2.6,0-5.7-2.2-9.3-6.5
		c-3.6-4.3-5.5-7.9-5.5-10.6c0-2.7,1.3-7.7,3.9-15c7.6-22.4,12-42.8,13.1-61.3c-2.1-1.7-4-4.1-5.7-7.1c-1.7-3-2.5-5.6-2.5-7.6
		c0-3.4,4.3-6.9,13-10.6c8.7-3.7,18.7-5.6,30.1-5.6c11.4,0,20.9,2.7,28.5,8.1c7.6,5.4,11.4,12.4,11.4,21.1c0,6.4-1.9,12.6-5.6,18.5
		c-3.8,5.9-7.8,10.5-12.3,13.9c-4.4,3.3-8.5,6.3-12.3,9c-3.8,2.7-5.6,4.5-5.6,5.2c0,2.7,0.9,5.3,2.7,7.7c1.8,2.4,4.3,5.2,7.6,8.4
		c3.2,3.2,6,5.9,8.4,8.1c2.4,2.2,4.3,4,5.8,5.5c1.5,1.5,3,3,4.5,4.6C508.1,113.7,509.6,116.2,509.6,118.1z M486.1,31.6
		c0-4.7-4.6-7.1-13.8-7.1c-4.4,0-9.6,1.2-15.6,3.7c2.8,4.3,4.2,8.2,4.2,11.8c0,6.5-0.9,13.7-2.7,21.6c1.2-0.9,3.5-2.5,6.9-4.8
		c3.4-2.3,6-4.2,7.8-5.6c1.8-1.4,3.9-3.2,6.3-5.5C483.8,41.4,486.1,36.7,486.1,31.6z"/>
</g>
</svg>
